<svg width="24" height="25" viewBox="0 0 24 25" fill="none" xmlns="http://www.w3.org/2000/svg">
<g clip-path="url(#clip0_203_1033)">
<mask id="mask0_203_1033" style="mask-type:luminance" maskUnits="userSpaceOnUse" x="0" y="0" width="24" height="25">
<path d="M12 24.5688C18.6274 24.5688 24 19.1963 24 12.5688C24 5.94143 18.6274 0.568848 12 0.568848C5.37258 0.568848 0 5.94143 0 12.5688C0 19.1963 5.37258 24.5688 12 24.5688Z" fill="white"/>
</mask>
<g mask="url(#mask0_203_1033)">
<path d="M0 7.35186L12.1312 2.42529L24 7.35186V17.7862L12.0469 23.6784L0 17.7862V7.35186Z" fill="#EEEEEE"/>
<path d="M0 0.568848V7.35166H4.95V6.31104H6.525V7.35166H8.08594V6.31104H9.66094V7.35166H11.2219V6.31104H12.7969V7.35166H14.3438V6.31104H15.9188V7.35166H17.475V6.31104H19.05V7.35166H24V0.568848H0Z" fill="#6DA544"/>
<path d="M0 17.7861V24.5689H24V17.7861H19.05V18.8361H17.475V17.7861H15.9188V18.8361H14.3438V17.7861H12.7969V18.8361H11.2219V17.7861H9.66094V18.8361H8.08594V17.7861H6.525V18.8361H4.95V17.7861H0ZM15.8953 9.44238H14.3297C14.3391 9.61582 14.3484 9.78926 14.3484 9.96269C14.3484 11.1252 14.0578 12.2502 13.5516 13.0564C13.3969 13.3002 13.1297 13.6471 12.7828 13.8814V9.44238H11.2172V13.8861C10.8656 13.6518 10.6078 13.3049 10.4484 13.0564C9.94219 12.2596 9.65156 11.1346 9.65156 9.96738C9.65156 9.79395 9.66094 9.62051 9.67031 9.45176H8.10938C8.09815 9.62342 8.09189 9.79536 8.09063 9.96738C8.09063 13.1877 9.81094 15.7096 12.0047 15.7096C14.1984 15.7096 15.9188 13.1877 15.9188 9.96738C15.9188 9.79395 15.9141 9.62051 15.9 9.45176L15.8953 9.44238Z" fill="#D80027"/>
</g>
</g>
<defs>
<clipPath id="clip0_203_1033">
<rect width="24" height="24" fill="white" transform="translate(0 0.568848)"/>
</clipPath>
</defs>
</svg>
