<svg width="120" height="46" viewBox="0 0 120 46" fill="none" xmlns="http://www.w3.org/2000/svg">
<g clip-path="url(#clip0_203_1069)">
<path d="M54.2873 14.7348L54.3726 15.6008H56.9303L56.9678 15.6323V24.2105C56.9678 26.447 55.0698 28.6036 53.1365 28.6036V29.7618C56.2331 29.7618 59.053 27.1154 59.053 24.2105V14.676L57.9438 13.6943L54.2894 14.7348H54.2873Z" fill="#0B0B0B"/>
<path d="M76.782 16.2587C75.6831 14.7789 73.858 13.749 71.9268 13.749V14.9072C73.8601 14.9072 75.7581 17.0638 75.7581 19.3003V29.7618H77.8808L77.8433 19.2456C77.8433 17.0091 79.7413 14.8525 81.6746 14.8525V13.6943C79.7205 13.6943 77.8766 14.7495 76.782 16.2587Z" fill="#0B0B0B"/>
<path d="M118.989 13.6945H118.4V27.1765C118.4 27.1765 112.779 19.2731 112.088 15.5589L112.083 13.6924H109.996V29.7598H112.119L112.094 19.271C113.428 22.0687 118.397 29.7598 118.397 29.7598H119.962L120 13.6924H118.986L118.989 13.6945Z" fill="#0B0B0B"/>
<path d="M90.6939 13.6943C87.5972 13.6943 84.7773 16.3407 84.7773 19.2456V29.7618H86.9001L86.8626 19.2456C86.8626 17.0091 88.7606 14.8525 90.6939 14.8525C92.6272 14.8525 94.5252 17.0091 94.5252 19.2456C94.5252 21.4821 92.6272 23.6387 90.6939 23.6387V24.7969C93.7906 24.7969 96.6104 22.1505 96.6104 19.2456C96.6104 16.3407 93.7906 13.6943 90.6939 13.6943Z" fill="#0B0B0B"/>
<path d="M62.7219 19.2456V24.2105C62.7219 27.1154 65.5418 29.7618 68.6385 29.7618V28.6036C66.7051 28.6036 64.8072 26.447 64.8072 24.2105V22.5331H68.6385V20.923H64.8072V19.2456C64.8072 17.0091 66.7051 14.8525 68.6385 14.8525V13.6943C65.5418 13.6943 62.7219 16.3407 62.7219 19.2456Z" fill="#0B0B0B"/>
<path d="M99.8738 19.2456V24.2105C99.8738 27.1154 102.694 29.7618 105.79 29.7618V28.6036C103.857 28.6036 101.959 26.447 101.959 24.2105V22.5331H105.79V20.923H101.959V19.2456C101.959 17.0091 103.857 14.8525 105.79 14.8525V13.6943C102.694 13.6943 99.8738 16.3407 99.8738 19.2456Z" fill="#0B0B0B"/>
<path d="M22.3447 0C10.0246 0 0 10.1252 0 22.5688C0 35.0124 10.0246 45.1376 22.3447 45.1376C34.6648 45.1376 44.6894 35.0124 44.6894 22.5688C44.6894 10.1252 34.6669 0 22.3447 0ZM22.3447 43.6053C10.8612 43.6053 1.51712 34.1695 1.51712 22.5688C1.51712 10.9681 10.8612 1.53443 22.3447 1.53443C33.8282 1.53443 43.1723 10.9702 43.1723 22.5709C43.1723 34.1716 33.8303 43.6074 22.3447 43.6074V43.6053Z" fill="#0B0B0B"/>
<path d="M22.9857 10.2407H15.6228C14.3616 17.4484 11.7166 23.3423 11.7166 23.3423C11.7166 23.3423 15.167 27.1868 17.5665 30.9682C19.966 34.7496 20.1679 40.5721 20.1679 40.5721L20.8401 41.251L21.6184 40.5406V28.6876L19.1689 26.3817L20.0201 25.0722L21.6184 26.6424H22.9857L24.5902 25.0722L25.4351 26.3817L22.9857 28.6876V40.5406L23.764 41.251L24.4362 40.5721C24.4362 40.5721 24.6443 34.7496 27.0417 30.9682C29.4412 27.1868 32.8917 23.3423 32.8917 23.3423C32.8917 23.3423 30.2404 17.4484 28.9855 10.2407H22.9836H22.9857ZM22.9857 25.2172H21.6184L19.1689 22.9072L20.0201 21.6039L21.6184 23.1678H22.9857L24.5902 21.6039L25.4351 22.9072L22.9857 25.2172ZM22.9857 21.7469H21.6184L19.1689 19.4368L20.0201 18.1336L21.6184 19.6975H22.9857L24.5902 18.1336L25.4351 19.4368L22.9857 21.7469Z" fill="#0B0B0B"/>
<path d="M22.9856 8.50886H28.7148C28.5775 7.54196 28.4776 6.56244 28.411 5.57031H16.1991C16.1325 6.56244 16.0264 7.54406 15.8911 8.50886H22.9856Z" fill="#0B0B0B"/>
</g>
<defs>
<clipPath id="clip0_203_1069">
<rect width="120" height="45.1376" fill="white"/>
</clipPath>
</defs>
</svg>
