<svg width="22" height="17" viewBox="0 0 22 17" fill="none" xmlns="http://www.w3.org/2000/svg">
<path d="M17 14.8047C17.83 14.8047 18.5 14.1347 18.5 13.3047C18.5 12.4747 17.83 11.8047 17 11.8047C16.17 11.8047 15.5 12.4747 15.5 13.3047C15.5 14.1347 16.17 14.8047 17 14.8047ZM18.5 5.80469H16V8.30469H20.46L18.5 5.80469ZM5 14.8047C5.83 14.8047 6.5 14.1347 6.5 13.3047C6.5 12.4747 5.83 11.8047 5 11.8047C4.17 11.8047 3.5 12.4747 3.5 13.3047C3.5 14.1347 4.17 14.8047 5 14.8047ZM19 4.30469L22 8.30469V13.3047H20C20 14.9647 18.66 16.3047 17 16.3047C15.34 16.3047 14 14.9647 14 13.3047H8C8 14.9647 6.66 16.3047 5 16.3047C3.34 16.3047 2 14.9647 2 13.3047H0V2.30469C0 1.19469 0.89 0.304688 2 0.304688H16V4.30469H19ZM2 2.30469V11.3047H2.76C3.31 10.6947 4.11 10.3047 5 10.3047C5.89 10.3047 6.69 10.6947 7.24 11.3047H14V2.30469H2ZM4 6.80469L5.5 5.30469L7 6.80469L10.5 3.30469L12 4.80469L7 9.80469L4 6.80469Z" fill="black"/>
</svg>
