<svg width="20" height="14" viewBox="0 0 20 14" fill="none" xmlns="http://www.w3.org/2000/svg">
<path d="M15.42 4.30469L11.41 0.304688H7V2.30469H10.59L12.59 4.30469H4.5C2 4.30469 0 6.30469 0 8.80469C0 11.3047 2 13.3047 4.5 13.3047C6.72 13.3047 8.56 11.6847 8.92 9.57469L11.04 8.30469C11 8.47469 11 8.63469 11 8.80469C11 11.3047 13 13.3047 15.5 13.3047C18 13.3047 20 11.3047 20 8.80469C20 6.30469 18 4.30469 15.5 4.30469M6.84 9.56469C6.5 10.5747 5.58 11.3047 4.47 11.3047C3.09 11.3047 1.97 10.1847 1.97 8.80469C1.97 7.42469 3.09 6.30469 4.47 6.30469C5.59 6.30469 6.5 7.04469 6.84 8.05469H4V9.55469L6.84 9.56469ZM15.47 11.3047C14.09 11.3047 12.97 10.1847 12.97 8.80469C12.97 7.42469 14.09 6.30469 15.47 6.30469C16.133 6.30469 16.7689 6.56808 17.2378 7.03692C17.7066 7.50576 17.97 8.14165 17.97 8.80469C17.97 9.46773 17.7066 10.1036 17.2378 10.5725C16.7689 11.0413 16.133 11.3047 15.47 11.3047Z" fill="black"/>
</svg>
