<svg width="10" height="19" viewBox="0 0 10 19" fill="none" xmlns="http://www.w3.org/2000/svg">
<path d="M0 12.8047H2C2 13.8847 3.37 14.8047 5 14.8047C6.63 14.8047 8 13.8847 8 12.8047C8 11.7047 6.96 11.3047 4.76 10.7747C2.64 10.2447 0 9.58469 0 6.80469C0 5.01469 1.47 3.49469 3.5 2.98469V0.804688H6.5V2.98469C8.53 3.49469 10 5.01469 10 6.80469H8C8 5.72469 6.63 4.80469 5 4.80469C3.37 4.80469 2 5.72469 2 6.80469C2 7.90469 3.04 8.30469 5.24 8.83469C7.36 9.36469 10 10.0247 10 12.8047C10 14.5947 8.53 16.1147 6.5 16.6247V18.8047H3.5V16.6247C1.47 16.1147 0 14.5947 0 12.8047Z" fill="black"/>
</svg>
