<svg width="23" height="17" viewBox="0 0 23 17" fill="none" xmlns="http://www.w3.org/2000/svg">
<path d="M0.75 4.30469H10.5L11.25 5.80469H1.5L0.75 4.30469ZM1.75 7.30469H11.5L12.25 8.80469H2.5L1.75 7.30469ZM18 15.3047C18.83 15.3047 19.5 14.6347 19.5 13.8047C19.5 12.9747 18.83 12.3047 18 12.3047C17.17 12.3047 16.5 12.9747 16.5 13.8047C16.5 14.6347 17.17 15.3047 18 15.3047ZM19.5 6.30469H17V8.80469H21.46L19.5 6.30469ZM8 15.3047C8.83 15.3047 9.5 14.6347 9.5 13.8047C9.5 12.9747 8.83 12.3047 8 12.3047C7.17 12.3047 6.5 12.9747 6.5 13.8047C6.5 14.6347 7.17 15.3047 8 15.3047ZM20 4.80469L23 8.80469V13.8047H21C21 15.4647 19.66 16.8047 18 16.8047C16.34 16.8047 15 15.4647 15 13.8047H11C11 15.4647 9.65 16.8047 8 16.8047C6.34 16.8047 5 15.4647 5 13.8047H3V10.3047H5V11.8047H5.76C6.31 11.1947 7.11 10.8047 8 10.8047C8.89 10.8047 9.69 11.1947 10.24 11.8047H15V2.80469H3C3 1.69469 3.89 0.804688 5 0.804688H17V4.80469H20Z" fill="black"/>
</svg>
