<svg width="22" height="21" viewBox="0 0 22 21" fill="none" xmlns="http://www.w3.org/2000/svg">
<path d="M15.78 20.6447C14.77 21.0747 13.59 20.6047 13.16 19.5847C12.73 18.5747 13.2 17.3947 14.22 16.9647C15.23 16.5347 16.41 17.0047 16.84 18.0247C17.27 19.0347 16.8 20.2147 15.78 20.6447ZM6.62 4.80469C7.73 4.80469 8.62 3.91469 8.62 2.80469C8.62 1.70469 7.73 0.804688 6.62 0.804688C5.5 0.804688 4.62 1.70469 4.62 2.80469C4.62 3.91469 5.5 4.80469 6.62 4.80469ZM21.05 15.1447L17.2 16.8047C17.42 17.0247 17.62 17.3047 17.76 17.6247C17.9 17.9547 17.96 18.3047 18 18.6247L21.83 16.9847L21.05 15.1447ZM9.16 7.58469L9.9 9.39469C9.66 9.30469 9.44 9.18469 9.26 9.06469C8.66 8.67469 8.22 8.18469 7.93 7.60469L7.19 6.03469C7 5.68469 6.77 5.42469 6.45 5.24469C6.16 5.07469 5.85 4.98469 5.53 4.98469C5.21 4.98469 4.91 5.06469 4.62 5.20469C3.22 6.30469 2.87 8.34469 2.87 8.34469L2.53 9.91469C2.44 10.4347 2.39 10.9547 2.39 11.4847V16.4447L0 19.6747L1.5 20.8047L4.27 17.0547L4.44 13.8047L6.12 16.1447V20.8047H7.97V14.7447L6.12 12.1347V11.4847C6.12 11.0447 6.12 10.6147 6.23 10.1947L6.58 8.99469C6.96 9.54469 7.42 10.0247 7.97 10.4347C8.42 10.7747 9.68 11.3747 10.87 11.6647L13 16.6047C13.22 16.3847 13.5 16.1847 13.83 16.0447C14.15 15.9047 14.5 15.8447 14.82 15.8047L11 6.80469L9.16 7.58469ZM14.36 10.9247L16.32 15.5247L21.95 13.1147L20 8.52469" fill="black"/>
</svg>
